
  <svg
    width="1000"
    height="1000"
    viewBox="0 0 1000 1000"
    xmlns="http://www.w3.org/2000/svg"
  >
    <defs>
      
      
      
      
      
       <pattern
        id="pattern"
        patternUnits="userSpaceOnUse"
        width="25"
        height="25"
        viewBox="0 0 100 100"
        fill="#FFA799"
        patternTransform="rotate(45 0 0)"
      >
        <path   
          d="M0 0 0 100"
          stroke="#FFA799"
          stroke-width="20"
        />
      </pattern>
      
      <clipPath id="shape">
        <path fill="currentColor" d="M816,687Q798,874,595,923Q392,972,251.5,829.5Q111,687,97.5,493.5Q84,300,241,177Q398,54,603.5,83.5Q809,113,821.5,306.5Q834,500,816,687Z"></path>
      </clipPath>
    </defs>
  
    

    <g  clip-path="url(#shape)">
      <path fill="url(#pattern)" d="M816,687Q798,874,595,923Q392,972,251.5,829.5Q111,687,97.5,493.5Q84,300,241,177Q398,54,603.5,83.5Q809,113,821.5,306.5Q834,500,816,687Z" />
    </g>

    
  
  </svg>