<svg id="Layer_1" data-name="Layer 1" xmlns="http://www.w3.org/2000/svg" viewBox="0 0 277.38 219.22"><path id="wings" d="M266.91,179.53c-.05-1.6-.13-3.19-.24-4.78,0-.54-.08-1.09-.13-1.63-.08-1.05-.16-2.1-.27-3.14-.06-.64-.14-1.28-.21-1.92-.11-.95-.23-1.9-.35-2.85-.09-.67-.19-1.34-.29-2-.14-.92-.29-1.84-.44-2.76-.12-.67-.23-1.34-.36-2-.17-.92-.35-1.84-.54-2.77-.13-.64-.26-1.29-.41-1.94-.21-1-.45-2-.68-2.94-.14-.58-.27-1.15-.42-1.73-.33-1.3-.69-2.6-1.06-3.89-.06-.24-.12-.49-.19-.73-.45-1.52-.92-3-1.41-4.54l-.08-.26-.37-1.05c-.39-1.14-.78-2.28-1.2-3.42-.05-.15-.1-.31-.16-.47-.3-.79-.6-1.59-.91-2.38l-.35-.87q-.64-1.65-1.35-3.27L255,127c-.39-.89-.79-1.77-1.2-2.66-.15-.33-.3-.66-.46-1-.55-1.16-1.11-2.32-1.69-3.46l-.46-.9q-.71-1.35-1.44-2.7c-.18-.35-.37-.69-.56-1-.64-1.15-1.29-2.3-2-3.43a31.58,31.58,0,0,1,10.7,12c-1.33-14.15-10.58-26.08-16.62-38.94-2.42-5.17-4.36-10.58-7.35-15.44s-7.24-9.23-12.69-10.92a3.32,3.32,0,0,0-1.56-.19c-1.11.2-1.77,1.32-2.28,2.34-6.55,12.95-12.67,26.54-23,36.7-4.09,4-8.78,7.42-12.41,11.84-.46.56-.89,1.14-1.32,1.73-.16.21-.31.43-.46.65-.26.38-.53.76-.79,1.15l-.52.8c-.22.35-.44.69-.66,1s-.37.59-.56.89l-.09.16-.89,1.47c-3.46,5.82-6.74,11.73-12.47,15.07l-10.72,26.7-10.44-26c-5.74-3.34-9-9.25-12.48-15.07l-.88-1.47-.1-.15c-.18-.3-.37-.6-.56-.9s-.44-.7-.66-1l-.52-.8c-.26-.39-.52-.77-.79-1.15l-.45-.65c-.43-.58-.87-1.16-1.33-1.72-3.63-4.43-8.32-7.84-12.41-11.85-10.37-10.16-16.49-23.75-23-36.7-.51-1-1.18-2.14-2.29-2.34a3.35,3.35,0,0,0-1.56.2c-5.45,1.68-9.7,6-12.69,10.91s-4.93,10.28-7.35,15.44c-6,12.86-15.29,24.79-16.61,38.94a31.56,31.56,0,0,1,10.69-12c-.67,1.14-1.32,2.28-1.95,3.43l-.57,1c-.49.9-1,1.8-1.43,2.7l-.46.9c-.58,1.14-1.15,2.3-1.69,3.46-.16.33-.31.67-.47,1-.41.88-.81,1.77-1.2,2.66l-.52,1.2c-.46,1.08-.91,2.17-1.35,3.26-.12.3-.23.6-.35.89-.3.79-.61,1.58-.9,2.37-.06.16-.11.32-.17.47-.41,1.14-.81,2.28-1.2,3.43-.12.35-.25.69-.36,1,0,.09-.06.18-.08.26-.5,1.51-1,3-1.41,4.55-.07.23-.13.47-.2.7-.37,1.3-.72,2.6-1.06,3.91-.14.58-.27,1.16-.41,1.73q-.36,1.47-.69,2.94c-.14.65-.27,1.3-.4,2-.19.92-.38,1.84-.55,2.77-.12.67-.24,1.34-.35,2-.16.92-.31,1.84-.44,2.76-.1.67-.2,1.34-.29,2-.13,1-.24,1.9-.35,2.85-.08.64-.15,1.28-.22,1.92-.1,1-.19,2.09-.27,3.14,0,.54-.09,1.09-.13,1.63-.1,1.59-.19,3.19-.24,4.78A28.28,28.28,0,0,1,47,169.58c-1.56,7.88.15,16.13,3.36,23.49.32.73.66,1.46,1,2.18,0,.09.09.17.13.26.19.39.4.78.6,1.18s.47.93.72,1.39l.63,1.14c.26.46.52.92.79,1.38s.43.74.65,1.1.57.93.86,1.4l.66,1.05.92,1.42c.22.33.43.66.65,1,.33.51.67,1,1,1.51.2.29.4.59.61.88l1.18,1.71.45.65,1.64,2.33c.5.7,1,1.42,1.53,2.12.07.1.14.21.21.3l.2.27c.14.18.28.37.43.55l.7.89.37.45c.34.41.7.82,1.06,1.22l.06.06c.38.41.77.8,1.17,1.18L69,221c.29.26.59.51.89.75s.31.25.47.36c.31.23.62.45,1,.65l.44.29a13.92,13.92,0,0,0,1.48.78,53.32,53.32,0,0,1-1.66-6.19c0-.16-.07-.32-.1-.48-.45-2.49-.64-4.8-.87-7.36,5.06,6.94,12.59,11.8,20.63,14.84S107.8,229,116.34,230l-11.14-8.26c-2.52-1.86-5.34-4.5-4.59-7.55.6.34,1.22.66,1.84,1l.6.28,1.28.59.77.31,1.15.46.83.28c.37.14.75.27,1.12.39l.85.25c.38.12.75.24,1.14.34s.57.14.85.21l1.16.29.85.18,1.18.23.86.15,1.19.19.87.1,1.2.15.87.07c.4,0,.8.08,1.21.1l.87,0c.41,0,.81.05,1.22.06h.88l1.21,0,.89,0c.4,0,.81,0,1.21,0l.91-.05c.39,0,.79,0,1.18-.06l.95-.08,1.13-.1,1-.11.93-.11.13,0,.17,0,1-.13.52-.09.65-.1c.62-.1,1.24-.2,1.86-.32a106.81,106.81,0,0,0,17.42-5.06,103.49,103.49,0,0,0,15.53,4.36l1.86.32.66.1.52.09,1,.13.16,0,.14,0,.93.11,1,.11,1.13.1,1,.08,1.17.06.92,0,1.19,0h.9c.41,0,.81,0,1.21,0h.89l1.21-.06.88,0,1.2-.1.88-.07,1.19-.15c.29,0,.58-.06.87-.11s.8-.12,1.19-.19l.87-.14,1.16-.23.87-.18,1.15-.29.86-.21c.38-.1.75-.22,1.12-.33l.86-.26,1.11-.38c.28-.1.57-.19.84-.3s.77-.3,1.15-.46.52-.19.77-.3c.44-.19.86-.39,1.29-.59l.6-.28c.62-.3,1.23-.62,1.84-1,.75,3-2.07,5.69-4.59,7.55l-11.14,8.26C199.42,228.33,208,227,216,224s15.57-7.9,20.63-14.84c-.22,2.56-.42,4.87-.87,7.36l-.09.48a53.36,53.36,0,0,1-1.67,6.19,16,16,0,0,0,1.48-.78l.45-.29c.32-.2.64-.42,1-.65l.46-.36c.3-.24.6-.49.89-.75l.38-.34c.4-.38.8-.77,1.18-1.18l.05-.06c.37-.4.72-.81,1.07-1.22l.36-.45c.24-.3.48-.59.71-.89l.42-.55.2-.27.22-.3q.78-1.06,1.53-2.13L246,210.6c.15-.22.3-.44.46-.65l1.18-1.71.6-.89c.34-.49.68-1,1-1.5.22-.32.44-.65.65-1l.92-1.42c.23-.35.45-.71.67-1.06s.57-.92.85-1.39.44-.73.65-1.1.53-.92.79-1.38.43-.76.64-1.15l.72-1.38.6-1.19.13-.25c.34-.72.68-1.45,1-2.18,3.21-7.36,4.92-15.61,3.36-23.49A28.28,28.28,0,0,1,266.91,179.53Z" transform="translate(-14.63 -36.94)" fill="#e8e8e8"/><path id="body" d="M260.41,124.63l-.26-1.22,0-.1a2.8,2.8,0,0,0-2-1.86c-1.39-.32-2.81.55-3.6,2.2a15.6,15.6,0,0,0-1.17,4.49,14.31,14.31,0,0,1-.78,3.38,9,9,0,0,0-1.33-.22,4.41,4.41,0,0,0-2.83.5l-.07,0a4.77,4.77,0,0,0-6.11.1,35,35,0,0,1-2.1-10.22v-.27a6.37,6.37,0,0,0-.82-3.65,3.88,3.88,0,0,0-.77-.85l-.08-.06a5.35,5.35,0,0,0-.86-.57,6.44,6.44,0,0,0-.8-.35,3.39,3.39,0,0,0-2.59-.07c-.82.35-1.81,1.24-1.88,3.5a35.53,35.53,0,0,0,1.16,8.78,33.44,33.44,0,0,1,1.1,8c0,.93-.12,1.86-.22,2.84s-.22,2.05-.24,3.09L231.4,140a9.15,9.15,0,0,0-3.16-1.77,9.28,9.28,0,0,0-4.94.4,3.39,3.39,0,0,0-2.22,1.47,2.49,2.49,0,0,0-.22,1.9,3.26,3.26,0,0,0,1,1.62,6,6,0,0,0,1.43.91c.19.1.37.19.53.29a9.33,9.33,0,0,1,2.42,2.56l.62.82A27,27,0,0,0,235,155a13.91,13.91,0,0,1-1.6,3.28,12.56,12.56,0,0,1-1.24,1.49c-1.75-1.09-4-2.57-5.7-3.41a1.48,1.48,0,0,0-1.37-.16,1.35,1.35,0,0,0-.46.66,11.32,11.32,0,0,0-.83,3.66,2.66,2.66,0,0,0-.86.46l-12.61-36.3L201.8,118a8.29,8.29,0,0,0-6.25-5.75,9.06,9.06,0,0,0-1.48-.16l-7.25-.15c8.58-10.52,9.09-22.35-10.29-41.82l.51.33c2.05,1.35,9.64,6.47,11.36,8.89,0,0,0-.11-.07-.27-.93-3.23-10.37-34.1-35-42v-.13l-.2.06-.19-.06v.13c-8.63,2.75-15.4,8.31-20.61,14.52C121.92,64,117.79,79,117.7,79.31l.21-.28c2.36-2.88,11.36-8.75,11.65-8.94l-.36.32c-17.73,16-19.35,28.75-9.26,41.5l-7.31.15a8.27,8.27,0,0,0-8,6.77c0,.26-.1.57-.15.85L98,124.84l-12.7,36.58h0l0,0a4,4,0,0,0-1.45-1,11.21,11.21,0,0,0-.83-3.65,1.26,1.26,0,0,0-.47-.66c-.4-.26-.93-.05-1.36.16-1.69.84-3.95,2.31-5.7,3.41a10.4,10.4,0,0,1-1.24-1.5,13.18,13.18,0,0,1-1.6-3.28,27,27,0,0,0,8.17-6.79l.63-.82a9.28,9.28,0,0,1,2.42-2.55c.16-.1.34-.19.53-.29a6.8,6.8,0,0,0,1.43-.91,3.38,3.38,0,0,0,1-1.62,2.57,2.57,0,0,0-.23-1.91,3.39,3.39,0,0,0-2.21-1.46,9.3,9.3,0,0,0-5-.41,9.42,9.42,0,0,0-3.16,1.78L73.48,142c0-1-.13-2.08-.24-3.1S73,137,73,136.05a33.84,33.84,0,0,1,1.11-8,35.66,35.66,0,0,0,1.16-8.78c-.07-2.26-1.07-3.15-1.88-3.5a3.34,3.34,0,0,0-2.59.07,7.21,7.21,0,0,0-.79.34,5.13,5.13,0,0,0-.88.57l-.07.06a4.12,4.12,0,0,0-.77.85,6.49,6.49,0,0,0-.83,3.66v.27a35.07,35.07,0,0,1-2.1,10.22,4.79,4.79,0,0,0-6.12-.1.18.18,0,0,0-.07-.05,4.26,4.26,0,0,0-2.83-.5,9.07,9.07,0,0,0-1.33.21,14.73,14.73,0,0,1-.77-3.37,15.6,15.6,0,0,0-1.17-4.49c-.8-1.66-2.21-2.52-3.61-2.2a2.81,2.81,0,0,0-2,1.86l0,.09-.23,1.08,0,.14a7.38,7.38,0,0,0,0,.82,27.64,27.64,0,0,0,.26,4.78c.16.95.41,1.86.65,2.75a22.25,22.25,0,0,1,.63,2.73,23.92,23.92,0,0,1,.14,3.63c0,.29,0,.57,0,.86A57.25,57.25,0,0,0,50,152c.06.3.13.59.19.88a7.54,7.54,0,0,0,.94,2.54c1.07,1.62,2.92,2.28,4.56,2.77l.21.06c.59.54,1.22,1,1.83,1.51a17.29,17.29,0,0,1,2.7,2.43,16.46,16.46,0,0,1,2.16,3.91c.19.43.39.87.6,1.31a16.62,16.62,0,0,0,1.41,2.48c-3,5.94-3.64,10.56-3.22,17.55a26.52,26.52,0,0,0,5.2-2.65,10.42,10.42,0,0,1,12.19,5.88,5.91,5.91,0,0,0,1.59,2.61c1,.7,2.36.47,3.58.32a22.61,22.61,0,0,1,8.74.59,6.61,6.61,0,0,0,3.57.3,2.16,2.16,0,0,0,.84-.51,2.07,2.07,0,0,0,.39-.54h0l3-.44,1.4-1.47,6-6.32,4.13-9.08a84,84,0,0,0,17,23,8.74,8.74,0,0,0,.88.73,8.18,8.18,0,0,0,4.86,1.58H172a8.25,8.25,0,0,0,5.74-2.31,83.64,83.64,0,0,0,17.86-24.87l4.89,10.77,6,6.32,1.4,1.47,2.06.3a2.71,2.71,0,0,0,.17.39,2.17,2.17,0,0,0,1.23,1.05,6.62,6.62,0,0,0,3.57-.31,22.59,22.59,0,0,1,8.74-.58c1.22.15,2.57.37,3.57-.33a5.63,5.63,0,0,0,1.59-2.61,10.43,10.43,0,0,1,12.2-5.88,27.34,27.34,0,0,0,5.19,2.66c.43-7-.24-11.61-3.21-17.56a16.56,16.56,0,0,0,1.41-2.47c.21-.44.4-.89.6-1.32a16.31,16.31,0,0,1,2.16-3.91,17.33,17.33,0,0,1,2.7-2.43c.61-.47,1.24-1,1.83-1.51l.2-.06c1.65-.48,3.5-1.14,4.56-2.76a7.51,7.51,0,0,0,.95-2.54l.18-.88a57.42,57.42,0,0,0,1.18-11.91c0-.28,0-.57,0-.86a17.2,17.2,0,0,1,.77-6.36c.24-.88.48-1.79.64-2.74a28.75,28.75,0,0,0,.27-4.78A7.27,7.27,0,0,0,260.41,124.63Z" transform="translate(-14.63 -36.94)" fill="#ddd"/><g id="nameBg"><path d="M292,256.16l-19.66-4c-.32-.07-31.74-6.38-51.22-7.92l-3.51-.27-.09-4.75c-9.15-.75-35.39-2.64-64.9-2.48l-3.85,0v-.05c-28,.07-53.45,2.36-62.54,3.27l.16,5.13-3.69.29c-19.53,1.54-49.36,6.7-49.65,6.75l-18.43,3.2,29-19V213.79L20,205.06l13.63-2.63c1.53-.29,38.47-7.24,119.79-7.24h3.94v0c77.6.3,114.85,7.07,116.42,7.36l15.37,2.86L261.91,214v22.44Z" transform="translate(-14.63 -36.94)" fill="#ddd"/></g><g id="name"><path d="M53.26,211.13h4.93l9,15.07h.25l-.25-4.33V211.13h4.21v22.48H67l-9.55-15.92h-.25l.25,4.33v11.59H53.26Z" transform="translate(-14.63 -36.94)" fill="#e8e8e8"/><path d="M80.85,229.39a11.26,11.26,0,0,1-4.22-4.25,12.21,12.21,0,0,1,0-11.87A11.35,11.35,0,0,1,80.85,209a12.33,12.33,0,0,1,12,0A11.28,11.28,0,0,1,97,213.27a12.21,12.21,0,0,1,0,11.87,11.18,11.18,0,0,1-4.22,4.25,12.26,12.26,0,0,1-12,0ZM90.64,226a7,7,0,0,0,2.71-2.74,8.66,8.66,0,0,0,0-8,7,7,0,0,0-2.71-2.73,7.91,7.91,0,0,0-7.59,0,7.08,7.08,0,0,0-2.7,2.73,8.66,8.66,0,0,0,0,8,7,7,0,0,0,2.7,2.74,7.91,7.91,0,0,0,7.59,0Z" transform="translate(-14.63 -36.94)" fill="#e8e8e8"/><path d="M107.42,227.55a11.38,11.38,0,0,1-4.23-4.26,12.28,12.28,0,0,1,0-11.87,11.38,11.38,0,0,1,4.23-4.26,12.31,12.31,0,0,1,12,0,11.38,11.38,0,0,1,4.23,4.26,12.21,12.21,0,0,1,0,11.87,11.38,11.38,0,0,1-4.23,4.26,12.31,12.31,0,0,1-12,0Zm9.78-3.44a7.07,7.07,0,0,0,2.72-2.73,8.66,8.66,0,0,0,0-8,7,7,0,0,0-2.72-2.74,7.59,7.59,0,0,0-3.8-1,7.49,7.49,0,0,0-3.78,1,7,7,0,0,0-2.7,2.74,8.66,8.66,0,0,0,0,8,7.08,7.08,0,0,0,2.7,2.73,7.49,7.49,0,0,0,3.78,1A7.59,7.59,0,0,0,117.2,224.11Z" transform="translate(-14.63 -36.94)" fill="#e8e8e8"/><path d="M129.14,204.53h8.79a7.75,7.75,0,0,1,3.47.78,6.4,6.4,0,0,1,2.5,2.14,5.21,5.21,0,0,1,.91,3,5.13,5.13,0,0,1-.84,2.94,5.42,5.42,0,0,1-2.18,1.9v.25a5.93,5.93,0,0,1,2.8,2,5.29,5.29,0,0,1,1,3.29,5.62,5.62,0,0,1-1,3.28,6.54,6.54,0,0,1-2.66,2.2,9,9,0,0,1-3.73.77h-9.1Zm8.48,9.17a3.15,3.15,0,0,0,2.21-.77,2.66,2.66,0,0,0,0-3.83,2.94,2.94,0,0,0-2.12-.77h-4.36v5.37Zm.47,9.45a3.38,3.38,0,0,0,2.4-.8,3,3,0,0,0,0-4.19,3.51,3.51,0,0,0-2.51-.82h-4.58v5.81Z" transform="translate(-14.63 -36.94)" fill="#e8e8e8"/><path d="M152.05,225.06a8.7,8.7,0,0,1-3.17-4.71l4-1.57a5.82,5.82,0,0,0,1.6,2.86,3.94,3.94,0,0,0,2.82,1.07,4.09,4.09,0,0,0,2.42-.71,2.27,2.27,0,0,0,1-2,2.55,2.55,0,0,0-1-2.06,12.52,12.52,0,0,0-3.41-1.71l-1.38-.5a9.8,9.8,0,0,1-3.71-2.31,5.35,5.35,0,0,1-1.53-3.91,5.88,5.88,0,0,1,.91-3.21,6.19,6.19,0,0,1,2.57-2.27,8.26,8.26,0,0,1,3.77-.84A7.08,7.08,0,0,1,164.2,208l-3.73,1.57a3.78,3.78,0,0,0-1.21-1.74,3.36,3.36,0,0,0-2.22-.71,3.76,3.76,0,0,0-2.27.64,2,2,0,0,0-.9,1.68,2.14,2.14,0,0,0,.85,1.71,8.86,8.86,0,0,0,2.79,1.37l1.42.47a10.89,10.89,0,0,1,4.47,2.66A6,6,0,0,1,165,220a6.12,6.12,0,0,1-1.13,3.73,7,7,0,0,1-2.91,2.27,9.13,9.13,0,0,1-3.66.76A8.56,8.56,0,0,1,152.05,225.06Z" transform="translate(-14.63 -36.94)" fill="#e8e8e8"/><path d="M169.34,223.27l4.3-4.29q3.18-3.18,4.09-4.16a10.43,10.43,0,0,0,1.66-2.19,4.13,4.13,0,0,0,.46-2,2.58,2.58,0,0,0-.88-2,3.68,3.68,0,0,0-4.61,0,4.42,4.42,0,0,0-1.24,2l-4-1.65a7.12,7.12,0,0,1,1.37-2.54,7.39,7.39,0,0,1,2.57-2,8.15,8.15,0,0,1,3.64-.78,8.61,8.61,0,0,1,4,.89,6.6,6.6,0,0,1,2.66,2.43,6.38,6.38,0,0,1,1,3.42c0,2.49-1.22,4.92-3.64,7.3-1,1-2.82,2.78-5.49,5.46l.1.2h9.33v3.87H169.34Z" transform="translate(-14.63 -36.94)" fill="#e8e8e8"/><path d="M189.81,205.06h7.91a8.44,8.44,0,0,1,3.9.89,7.09,7.09,0,0,1,2.76,9.91,6.82,6.82,0,0,1-2.76,2.53,8.44,8.44,0,0,1-3.9.89h-3.67v8.26h-4.24Zm8,10.2a3.28,3.28,0,0,0,2.46-.91,3.11,3.11,0,0,0,0-4.38,3.3,3.3,0,0,0-2.46-.89h-3.8v6.18Z" transform="translate(-14.63 -36.94)" fill="#e8e8e8"/><path d="M208.14,206.9h8.2a8.29,8.29,0,0,1,3.91.91,6.59,6.59,0,0,1,2.65,2.53,7.13,7.13,0,0,1,.94,3.66,5.92,5.92,0,0,1-1.36,3.85,7.75,7.75,0,0,1-3.44,2.43l0,.22,6,8.64v.25h-4.87l-5.81-8.45h-2v8.45h-4.24Zm8.17,10.15a3.22,3.22,0,0,0,2.35-.88,3,3,0,0,0,.91-2.23,3,3,0,0,0-3.2-3.11h-4v6.22Z" transform="translate(-14.63 -36.94)" fill="#e8e8e8"/><path d="M233.18,232a11.18,11.18,0,0,1-4.22-4.25,12.21,12.21,0,0,1,0-11.87,11.28,11.28,0,0,1,4.22-4.26,12.33,12.33,0,0,1,12,0,11.28,11.28,0,0,1,4.22,4.26,12.21,12.21,0,0,1,0,11.87,11.18,11.18,0,0,1-4.22,4.25,12.26,12.26,0,0,1-12,0Zm9.78-3.44a6.87,6.87,0,0,0,2.72-2.73,8.66,8.66,0,0,0,0-8,7,7,0,0,0-2.72-2.73,7.89,7.89,0,0,0-7.58,0,7.08,7.08,0,0,0-2.7,2.73,8.66,8.66,0,0,0,0,8,7,7,0,0,0,2.7,2.73,7.82,7.82,0,0,0,7.58,0Z" transform="translate(-14.63 -36.94)" fill="#e8e8e8"/></g></svg>